<?xml version="1.0" encoding="UTF-8" standalone="no"?>
<!-- Created with Inkscape (http://www.inkscape.org/) -->

<svg
   xmlns:dc="http://purl.org/dc/elements/1.1/"
   xmlns:cc="http://creativecommons.org/ns#"
   xmlns:rdf="http://www.w3.org/1999/02/22-rdf-syntax-ns#"
   xmlns:svg="http://www.w3.org/2000/svg"
   xmlns="http://www.w3.org/2000/svg"
   xmlns:xlink="http://www.w3.org/1999/xlink"
   xmlns:sodipodi="http://sodipodi.sourceforge.net/DTD/sodipodi-0.dtd"
   xmlns:inkscape="http://www.inkscape.org/namespaces/inkscape"
   width="1280"
   height="640"
   viewBox="0 0 338.66666 169.33334"
   version="1.1"
   id="svg8"
   inkscape:export-filename="D:\_Projektek\Random\Szivacs betterment\Filc\Logo\play_banner.png"
   inkscape:export-xdpi="96"
   inkscape:export-ydpi="96"
   inkscape:version="0.92.4 (5da689c313, 2019-01-14)"
   sodipodi:docname="gh_banner.svg">
  <defs
     id="defs2">
    <filter
       height="1.2040001"
       y="-0.10200003"
       width="1.2039999"
       x="-0.10199997"
       id="filter1109"
       style="color-interpolation-filters:sRGB"
       inkscape:collect="always">
      <feGaussianBlur
         id="feGaussianBlur1111"
         stdDeviation="0.4753577"
         inkscape:collect="always" />
    </filter>
    <filter
       height="1.4267435"
       y="-0.21337175"
       width="1.5875512"
       x="-0.29377559"
       id="filter1123"
       style="color-interpolation-filters:sRGB"
       inkscape:collect="always">
      <feGaussianBlur
         id="feGaussianBlur1125"
         stdDeviation="0.47663912"
         inkscape:collect="always" />
    </filter>
    <filter
       height="1.5189893"
       y="-0.25949466"
       width="1.4990031"
       x="-0.24950154"
       id="filter1245"
       style="color-interpolation-filters:sRGB"
       inkscape:collect="always">
      <feGaussianBlur
         id="feGaussianBlur1247"
         stdDeviation="0.56046904"
         inkscape:collect="always" />
    </filter>
  </defs>
  <sodipodi:namedview
     id="base"
     pagecolor="#ffffff"
     bordercolor="#666666"
     borderopacity="1.0"
     inkscape:pageopacity="0.0"
     inkscape:pageshadow="2"
     inkscape:zoom="0.35"
     inkscape:cx="717.32494"
     inkscape:cy="76.725573"
     inkscape:document-units="mm"
     inkscape:current-layer="layer1"
     showgrid="false"
     units="px"
     inkscape:snap-page="true"
     inkscape:snap-bbox="true"
     inkscape:snap-bbox-midpoints="true"
     inkscape:window-width="1280"
     inkscape:window-height="961"
     inkscape:window-x="-8"
     inkscape:window-y="-8"
     inkscape:window-maximized="1" />
  <metadata
     id="metadata5">
    <rdf:RDF>
      <cc:Work
         rdf:about="">
        <dc:format>image/svg+xml</dc:format>
        <dc:type
           rdf:resource="http://purl.org/dc/dcmitype/StillImage" />
        <dc:title></dc:title>
      </cc:Work>
    </rdf:RDF>
  </metadata>
  <g
     inkscape:label="1. réteg"
     inkscape:groupmode="layer"
     id="layer1"
     transform="translate(0,-127.66665)">
    <rect
       style="opacity:1;fill:#20733f;fill-opacity:1;stroke:none;stroke-width:8.52880287;stroke-linecap:round;stroke-linejoin:round;stroke-miterlimit:4;stroke-dasharray:none;stroke-dashoffset:0;stroke-opacity:1"
       id="rect1273"
       width="338.66666"
       height="169.33334"
       x="0"
       y="127.66665" />
    <g
       id="g4670"
       transform="matrix(10.355212,0,0,10.355212,-1125.5481,-2079.8785)">
      <path
         inkscape:href="#path839"
         transform="translate(-28.016506,191.08956)"
         sodipodi:type="inkscape:offset"
         inkscape:radius="0"
         inkscape:original="M 151.90234 29.310547 C 151.85684 29.320737 151.77621 29.340396 151.74023 29.347656 C 151.59592 29.376766 151.37998 29.414572 151.0918 29.460938 C 150.80306 29.504527 150.5869 29.541742 150.44531 29.570312 C 150.39251 29.580932 150.32809 29.625399 150.30078 29.667969 C 150.26688 29.701329 150.24405 29.794568 150.25195 29.851562 C 150.29345 30.057282 150.35821 30.36615 150.44727 30.779297 C 150.53567 31.189649 150.60108 31.497408 150.64258 31.703125 C 150.65158 31.748205 150.66775 31.831393 150.68945 31.953125 C 150.70565 32.061299 150.71968 32.144502 150.73438 32.203125 C 150.74138 32.236935 150.74901 32.261524 150.75781 32.277344 C 150.78151 32.310684 150.82295 32.322637 150.88281 32.310547 C 150.96181 32.294617 151.09851 32.250785 151.29102 32.179688 C 151.48625 32.108038 151.63676 32.061889 151.74023 32.041016 C 152.5244 31.882815 152.9706 32.078591 153.08203 32.630859 C 153.14853 32.960572 153.07405 33.237411 152.85742 33.457031 C 152.67346 33.640782 152.41262 33.765321 152.07227 33.833984 C 151.82449 33.883974 151.5424 33.862628 151.22852 33.767578 C 151.0296 33.704778 150.89923 33.650789 150.84375 33.626953 C 150.81435 33.614303 150.80889 33.629328 150.80469 33.642578 C 150.78889 33.698898 150.75752 33.83309 150.76172 34.023438 C 150.76672 34.257118 150.77893 34.424805 150.79883 34.523438 C 150.81983 34.627701 151.0764 34.675322 151.56836 34.669922 C 151.96434 34.666322 152.25979 34.644469 152.45312 34.605469 C 153.05758 34.483522 153.50475 34.240892 153.79688 33.876953 C 154.11712 33.483879 154.21517 32.982615 154.0918 32.371094 C 153.98946 31.863843 153.74676 31.509843 153.36328 31.308594 C 153.01817 31.128934 152.59475 31.090329 152.09375 31.191406 C 152.00935 31.208436 151.88673 31.24171 151.72461 31.294922 C 151.56522 31.347602 151.44497 31.38195 151.36328 31.398438 C 151.29388 30.913873 151.23606 30.557252 151.18945 30.326172 C 151.34022 30.286972 151.51531 30.24768 151.7168 30.207031 C 151.82097 30.186021 152.00632 30.157859 152.1875 30.130859 C 152.1342 30.067789 152.02054 29.92796 151.94141 29.738281 C 151.87261 29.573317 151.88364 29.41659 151.90234 29.310547 z "
         xlink:href="#path839"
         style="font-style:normal;font-variant:normal;font-weight:normal;font-stretch:normal;font-size:10.58333302px;line-height:1.25;font-family:'Berlin Sans FB';-inkscape-font-specification:'Berlin Sans FB';letter-spacing:0px;word-spacing:0px;fill:#ffffff;fill-opacity:1;stroke:#ffffff;stroke-width:0;stroke-miterlimit:4;stroke-dasharray:none"
         id="path1255"
         d="m 151.90234,29.310547 c -0.0455,0.01019 -0.12613,0.02985 -0.16211,0.03711 -0.14431,0.02911 -0.36025,0.06692 -0.64843,0.113282 -0.28874,0.04359 -0.5049,0.0808 -0.64649,0.109374 -0.0528,0.01062 -0.11722,0.05509 -0.14453,0.09766 -0.0339,0.03336 -0.0567,0.126599 -0.0488,0.183593 0.0415,0.20572 0.10626,0.514588 0.19532,0.927735 0.0884,0.410352 0.15381,0.718111 0.19531,0.923828 0.009,0.04508 0.0252,0.128268 0.0469,0.25 0.0162,0.108174 0.0302,0.191377 0.0449,0.25 0.007,0.03381 0.0146,0.0584 0.0234,0.07422 0.0237,0.03334 0.0651,0.04529 0.125,0.0332 0.079,-0.01593 0.2157,-0.05976 0.40821,-0.130859 0.19523,-0.07165 0.34574,-0.117799 0.44921,-0.138672 0.78417,-0.158201 1.23037,0.03758 1.3418,0.589843 0.0665,0.329713 -0.008,0.606552 -0.22461,0.826172 -0.18396,0.183751 -0.4448,0.30829 -0.78515,0.376953 -0.24778,0.04999 -0.52987,0.02864 -0.84375,-0.06641 -0.19892,-0.0628 -0.32929,-0.116789 -0.38477,-0.140625 -0.0294,-0.01265 -0.0349,0.0024 -0.0391,0.01563 -0.0158,0.05632 -0.0472,0.190512 -0.043,0.38086 0.005,0.23368 0.0172,0.401367 0.0371,0.5 0.021,0.104263 0.27757,0.151884 0.76953,0.146484 0.39598,-0.0036 0.69143,-0.02545 0.88476,-0.06445 0.60446,-0.121947 1.05163,-0.364577 1.34376,-0.728516 0.32024,-0.393074 0.41829,-0.894338 0.29492,-1.505859 -0.10234,-0.507251 -0.34504,-0.861251 -0.72852,-1.0625 -0.34511,-0.17966 -0.76853,-0.218265 -1.26953,-0.117188 -0.0844,0.01703 -0.20702,0.0503 -0.36914,0.103516 -0.15939,0.05268 -0.27964,0.08703 -0.36133,0.103516 -0.0694,-0.484565 -0.12722,-0.841186 -0.17383,-1.072266 0.15077,-0.0392 0.32586,-0.07849 0.52735,-0.119141 0.10417,-0.02101 0.28952,-0.04917 0.4707,-0.07617 -0.0533,-0.06307 -0.16696,-0.202899 -0.24609,-0.392578 -0.0688,-0.164964 -0.0578,-0.321691 -0.0391,-0.427734 z" />
      <path
         inkscape:connector-curvature="0"
         id="path1257"
         d="m 130.6388,221.59375 a 5.592442,5.592442 0 0 1 -5.59244,5.59244 5.592442,5.592442 0 0 1 -5.59245,-5.59244 5.592442,5.592442 0 0 1 5.59245,-5.59244 5.592442,5.592442 0 0 1 5.59244,5.59244 z"
         style="opacity:1;fill:#000000;fill-opacity:1;stroke:none;stroke-width:0.51200002;stroke-linecap:round;stroke-linejoin:round;stroke-miterlimit:4;stroke-dasharray:none;stroke-dashoffset:0;stroke-opacity:1;filter:url(#filter1109)" />
      <path
         style="opacity:1;fill:#2ca05a;fill-opacity:1;stroke:#ffffff;stroke-width:0.51200002;stroke-linecap:round;stroke-linejoin:round;stroke-miterlimit:4;stroke-dasharray:none;stroke-dashoffset:0;stroke-opacity:1"
         d="m 130.6388,221.59375 a 5.592442,5.592442 0 0 1 -5.59244,5.59244 5.592442,5.592442 0 0 1 -5.59245,-5.59244 5.592442,5.592442 0 0 1 5.59245,-5.59244 5.592442,5.592442 0 0 1 5.59244,5.59244 z"
         id="path1259"
         inkscape:connector-curvature="0" />
      <path
         sodipodi:nodetypes="cccccccccccccccccccccccccccccccccccc"
         inkscape:connector-curvature="0"
         id="path1261"
         d="m 122.42947,220.65951 c -0.0528,0.0106 -0.11759,0.0563 -0.1449,0.0988 -0.0339,0.0333 -0.0574,0.12521 -0.0495,0.1822 0.0415,0.20572 0.10671,0.51527 0.19577,0.92842 0.0884,0.41035 0.15336,0.71823 0.19486,0.92395 0.009,0.0451 0.0248,0.12816 0.0465,0.24989 0.0162,0.10818 0.0314,0.19193 0.0461,0.25055 0.007,0.0338 0.0146,0.0585 0.0234,0.0743 0.0237,0.0333 0.0656,0.0438 0.12546,0.0317 0.079,-0.0159 0.2148,-0.0593 0.40731,-0.13042 0.19523,-0.0716 0.34486,-0.11782 0.44833,-0.13869 0.78417,-0.1582 1.23173,0.0389 1.34316,0.59114 0.0665,0.32971 -0.008,0.60468 -0.22463,0.8243 -0.18396,0.18375 -0.44606,0.30973 -0.78641,0.37839 -0.24778,0.05 -0.52884,0.0273 -0.84272,-0.0677 -0.19892,-0.0628 -0.33007,-0.11615 -0.38555,-0.13999 -0.0294,-0.0127 -0.0352,0.003 -0.0394,0.0164 -0.0158,0.0563 -0.0459,0.1901 -0.0417,0.38045 0.005,0.23368 0.0167,0.40031 0.0366,0.49895 0.021,0.10426 0.27767,0.15358 0.76963,0.14818 0.39598,-0.004 0.69069,-0.0254 0.88402,-0.0644 0.60446,-0.12194 1.05268,-0.36487 1.3448,-0.72881 0.32024,-0.39307 0.41876,-0.895 0.29539,-1.50652 -0.10234,-0.50725 -0.34542,-0.86144 -0.7289,-1.06269 -0.34511,-0.17966 -0.76801,-0.21886 -1.26901,-0.11778 -0.0844,0.017 -0.20766,0.0516 -0.36978,0.10483 -0.15939,0.0527 -0.27989,0.0873 -0.36158,0.10376 -0.0694,-0.48457 -0.1278,-0.84233 -0.17441,-1.07341 0.15077,-0.0392 0.32711,-0.0788 0.5286,-0.11943 0.10417,-0.021 0.28831,-0.0485 0.46949,-0.0755 -0.0533,-0.0631 -0.16627,-0.20262 -0.2454,-0.3923 -0.0688,-0.16496 -0.0585,-0.3225 -0.0398,-0.42854 -0.0455,0.0102 -0.12589,0.0312 -0.16187,0.0385 -0.14431,0.0291 -0.36027,0.0664 -0.64845,0.1128 -0.28874,0.0436 -0.50376,0.0801 -0.64535,0.10869 z"
         style="font-style:normal;font-variant:normal;font-weight:normal;font-stretch:normal;font-size:10.58333302px;line-height:1.25;font-family:'Berlin Sans FB';-inkscape-font-specification:'Berlin Sans FB';letter-spacing:0px;word-spacing:0px;fill:#000000;fill-opacity:0.47368421;stroke:none;stroke-width:0.2;stroke-miterlimit:4;stroke-dasharray:none;filter:url(#filter1123)" />
      <path
         style="font-style:normal;font-variant:normal;font-weight:normal;font-stretch:normal;font-size:10.58333302px;line-height:1.25;font-family:'Berlin Sans FB';-inkscape-font-specification:'Berlin Sans FB';letter-spacing:0px;word-spacing:0px;fill:#ffffff;fill-opacity:1;stroke:#ffffff;stroke-width:0.2;stroke-miterlimit:4;stroke-dasharray:none"
         d="m 122.42947,220.65951 c -0.0528,0.0106 -0.11759,0.0563 -0.1449,0.0988 -0.0339,0.0333 -0.0574,0.12521 -0.0495,0.1822 0.0415,0.20572 0.10671,0.51527 0.19577,0.92842 0.0884,0.41035 0.15336,0.71823 0.19486,0.92395 0.009,0.0451 0.0248,0.12816 0.0465,0.24989 0.0162,0.10818 0.0314,0.19193 0.0461,0.25055 0.007,0.0338 0.0146,0.0585 0.0234,0.0743 0.0237,0.0333 0.0656,0.0438 0.12546,0.0317 0.079,-0.0159 0.2148,-0.0593 0.40731,-0.13042 0.19523,-0.0716 0.34486,-0.11782 0.44833,-0.13869 0.78417,-0.1582 1.23173,0.0389 1.34316,0.59114 0.0665,0.32971 -0.008,0.60468 -0.22463,0.8243 -0.18396,0.18375 -0.44606,0.30973 -0.78641,0.37839 -0.24778,0.05 -0.52884,0.0273 -0.84272,-0.0677 -0.19892,-0.0628 -0.33007,-0.11615 -0.38555,-0.13999 -0.0294,-0.0127 -0.0352,0.003 -0.0394,0.0164 -0.0158,0.0563 -0.0459,0.1901 -0.0417,0.38045 0.005,0.23368 0.0167,0.40031 0.0366,0.49895 0.021,0.10426 0.27767,0.15358 0.76963,0.14818 0.39598,-0.004 0.69069,-0.0254 0.88402,-0.0644 0.60446,-0.12194 1.05268,-0.36487 1.3448,-0.72881 0.32024,-0.39307 0.41876,-0.895 0.29539,-1.50652 -0.10234,-0.50725 -0.34542,-0.86144 -0.7289,-1.06269 -0.34511,-0.17966 -0.76801,-0.21886 -1.26901,-0.11778 -0.0844,0.017 -0.20766,0.0516 -0.36978,0.10483 -0.15939,0.0527 -0.27989,0.0873 -0.36158,0.10376 -0.0694,-0.48457 -0.1278,-0.84233 -0.17441,-1.07341 0.15077,-0.0392 0.32711,-0.0788 0.5286,-0.11943 0.10417,-0.021 0.28831,-0.0485 0.46949,-0.0755 -0.0533,-0.0631 -0.16627,-0.20262 -0.2454,-0.3923 -0.0688,-0.16496 -0.0585,-0.3225 -0.0398,-0.42854 -0.0455,0.0102 -0.12589,0.0312 -0.16187,0.0385 -0.14431,0.0291 -0.36027,0.0664 -0.64845,0.1128 -0.28874,0.0436 -0.50376,0.0801 -0.64535,0.10869 z"
         id="path1263"
         inkscape:connector-curvature="0"
         sodipodi:nodetypes="cccccccccccccccccccccccccccccccccccc" />
      <path
         style="fill:#000000;fill-opacity:0.48325363;stroke-width:0.05114757;filter:url(#filter1245)"
         d="m 124.25174,220.8139 c -0.0969,-0.11808 -0.0292,-0.37051 0.16591,-0.6178 0.11609,-0.14719 0.13901,-0.21663 0.0959,-0.29051 -0.10433,-0.17886 -0.0835,-0.35647 0.0606,-0.51644 0.12018,-0.1335 0.13092,-0.17243 0.0683,-0.2487 -0.064,-0.078 -0.094,-0.0844 1.14613,-1.25324 0,0 1.09756,-1.05838 1.86997,-1.74953 0.36028,-0.32238 0.4995,-0.38153 0.58989,-0.38952 0.0904,-0.008 0.47996,-0.111 0.96206,0.40643 0.47803,0.51307 0.3898,0.80462 0.36833,0.90012 -0.0215,0.0955 -0.099,0.29814 -0.37693,0.58418 -0.70676,0.72747 -1.88735,1.86147 -1.88735,1.86147 -1.27331,1.19212 -1.21544,1.13108 -1.30829,1.06286 -0.086,-0.0632 -0.11816,-0.0604 -0.1887,0.0165 -0.13371,0.14584 -0.37617,0.19476 -0.54172,0.10941 -0.15423,-0.0795 -0.16185,-0.0775 -0.45972,0.11835 -0.22097,0.14533 -0.44828,0.1479 -0.56445,0.006 z m 1.43302,-0.53961 -0.37302,-0.39619 -0.37302,-0.39619 -0.11518,0.10239 c -0.0634,0.0563 -0.11126,0.14289 -0.10646,0.19239 0.009,0.095 0.55094,0.68141 0.64,0.6951 0.0287,0.004 0.11744,-0.0247 0.19205,-0.0861 z m 2.36988,-3.89639 -1.77949,1.67564 -1.12749,1.07232 0.45037,0.47606 0.45038,0.47606 1.12861,-1.07286 1.76897,-1.73459 c 0.0525,-0.0529 0.19257,-0.23583 0.16955,-0.36932 -0.0564,-0.32716 -0.36699,-0.66084 -0.69475,-0.71364 -0.13581,-0.0219 -0.28027,0.11743 -0.36615,0.19033 z"
         id="path1265"
         inkscape:connector-curvature="0"
         sodipodi:nodetypes="ccccccszszsscccccccccccccccccccccaac" />
      <path
         inkscape:connector-curvature="0"
         id="path1267"
         d="m 130.6388,221.59375 a 5.592442,5.592442 0 0 1 -5.59244,5.59244 5.592442,5.592442 0 0 1 -5.59245,-5.59244 5.592442,5.592442 0 0 1 5.59245,-5.59244 5.592442,5.592442 0 0 1 5.59244,5.59244 z"
         style="opacity:1;fill:none;fill-opacity:1;stroke:#ffffff;stroke-width:0.51200002;stroke-linecap:round;stroke-linejoin:round;stroke-miterlimit:4;stroke-dasharray:none;stroke-dashoffset:0;stroke-opacity:1" />
      <g
         transform="translate(15.715176,137.14866)"
         id="g1385">
        <path
           inkscape:connector-curvature="0"
           id="path1269"
           d="m 110.00697,81.034573 -0.79513,0.865285 -0.3274,0.678196 0.46772,0.724969 0.42095,0.187089 3.78855,-3.367598 -0.0935,-0.771739 -0.72496,-0.561266 -1.05238,0.795126 z"
           style="fill:#1bc15d;fill-opacity:1;stroke:none;stroke-width:0.26458332px;stroke-linecap:butt;stroke-linejoin:miter;stroke-opacity:1" />
        <path
           style="fill:#ffffff;stroke-width:0.05114757"
           d="m 108.53656,83.665238 c -0.0969,-0.11808 -0.0292,-0.370511 0.16591,-0.617796 0.11609,-0.147196 0.13901,-0.216629 0.0959,-0.290509 -0.10433,-0.178861 -0.0835,-0.35647 0.0606,-0.516445 0.12018,-0.133503 0.13092,-0.172429 0.0683,-0.248699 -0.064,-0.07803 -0.094,-0.08441 1.14613,-1.253243 0,0 1.09756,-1.058373 1.86997,-1.749527 0.36028,-0.322382 0.4995,-0.38153 0.58989,-0.389521 0.0904,-0.008 0.47996,-0.110999 0.96206,0.406437 0.47803,0.513066 0.3898,0.804611 0.36833,0.90011 -0.0215,0.0955 -0.099,0.29815 -0.37693,0.584181 -0.70676,0.727473 -1.88735,1.861474 -1.88735,1.861474 -1.27331,1.19212 -1.21544,1.131084 -1.30829,1.062862 -0.086,-0.06316 -0.11816,-0.06039 -0.1887,0.01649 -0.13371,0.145836 -0.37617,0.194758 -0.54172,0.10941 -0.15423,-0.07951 -0.16185,-0.07754 -0.45972,0.118353 -0.22097,0.145326 -0.44828,0.147892 -0.56445,0.0064 z m 1.43302,-0.539613 -0.37302,-0.396188 -0.37302,-0.396191 -0.11518,0.102397 c -0.0634,0.0563 -0.11126,0.142888 -0.10646,0.192386 0.009,0.09499 0.55094,0.681411 0.64,0.695099 0.0287,0.0044 0.11744,-0.02474 0.19205,-0.08605 z m 2.36988,-3.896383 -1.77949,1.675637 -1.12749,1.072325 0.45037,0.476058 0.45038,0.476058 1.12861,-1.072863 1.76897,-1.73459 c 0.0525,-0.05286 0.19257,-0.235831 0.16955,-0.36932 -0.0564,-0.327158 -0.36699,-0.660835 -0.69475,-0.713634 -0.13581,-0.02188 -0.28027,0.117431 -0.36615,0.190329 z"
           id="path1271"
           inkscape:connector-curvature="0"
           sodipodi:nodetypes="ccccccszszsscccccccccccccccccccccaac" />
      </g>
    </g>
  </g>
</svg>
